<svg width="33" height="33" viewBox="0 0 33 33" fill="none" xmlns="http://www.w3.org/2000/svg">
<mask id="mask0" mask-type="alpha" maskUnits="userSpaceOnUse" x="0" y="0" width="33" height="33">
<rect width="33" height="33" rx="7" fill="#C4C4C4"/>
</mask>
<g mask="url(#mask0)">
<path d="M19.2208 13.8072C20.5298 15.1174 21.5961 17.2543 20.9831 18.5262C19.3485 21.9288 7.15281 27.8943 6.11841 26.8577C5.08401 25.8274 11.0733 13.6737 14.4894 12.0456C15.76 11.4414 17.9118 12.5035 19.2208 13.8072C19.2208 13.8009 19.2208 13.8072 19.2208 13.8072Z" fill="#FF8200"/>
<path d="M25.6827 12.3763C25.6827 12.3699 25.6827 12.3699 25.6827 12.3763C25.472 11.594 24.9292 10.8054 24.1183 10.71C22.6369 10.5383 20.3 13.1458 20.466 13.7691C20.632 14.386 23.9331 15.4799 25.1655 14.5959C25.804 14.1379 25.8934 13.1585 25.6827 12.3763ZM21.0917 5.14511C22.19 5.44402 23.3074 6.19448 23.4351 7.32654C23.6777 9.39349 20.0063 12.6561 19.1315 12.4271C18.2567 12.1918 16.7243 7.58729 17.963 5.86377C18.6079 4.97339 19.9935 4.84619 21.0917 5.14511C21.0917 5.13875 21.0917 5.13875 21.0917 5.14511Z" fill="#0AAD0A"/>
</g>
</svg>
