<svg width="16" height="18" viewBox="0 0 16 18" fill="none" xmlns="http://www.w3.org/2000/svg">
<path d="M12.5555 9.44668C12.5469 7.98145 13.2107 6.87715 14.5514 6.06289C13.8016 4.98867 12.6672 4.39785 11.1719 4.28398C9.75605 4.17227 8.20703 5.10898 7.63984 5.10898C7.04043 5.10898 5.66973 4.32266 4.59121 4.32266C2.36543 4.35703 0 6.09727 0 9.63789C0 10.6842 0.191211 11.7648 0.573633 12.8777C1.08496 14.343 2.92832 17.933 4.85117 17.875C5.85664 17.8514 6.56777 17.1617 7.87617 17.1617C9.1459 17.1617 9.80332 17.875 10.9248 17.875C12.8648 17.8471 14.532 14.5836 15.0176 13.1141C12.4158 11.8873 12.5555 9.52188 12.5555 9.44668ZM10.2975 2.89395C11.3867 1.60059 11.2879 0.423242 11.2557 0C10.2932 0.0558594 9.18027 0.655274 8.54648 1.39219C7.84824 2.18281 7.43789 3.16035 7.52598 4.2625C8.56582 4.34199 9.51543 3.80703 10.2975 2.89395Z" fill="#46484C"/>
</svg>
