<svg width="27" height="28" viewBox="0 0 27 28" fill="none" xmlns="http://www.w3.org/2000/svg">
<mask id="mask0" mask-type="alpha" maskUnits="userSpaceOnUse" x="0" y="0" width="27" height="27">
<rect width="27" height="27" rx="7" fill="#C4C4C4"/>
</mask>
<g mask="url(#mask0)">
<path fill-rule="evenodd" clip-rule="evenodd" d="M2.57434 27.7184H25.2041V8.44128H2.57434V27.7184Z" fill="#43B02A"/>
<path fill-rule="evenodd" clip-rule="evenodd" d="M6.75329 2.62793L6.71838 5.05975H20.9737L20.9388 2.62793H6.75329Z" fill="#3EA426"/>
<path opacity="0.296763" fill-rule="evenodd" clip-rule="evenodd" d="M6.76502 27.7184H4.25061V8.44128C5.92689 8.44128 6.76502 8.44128 6.76502 8.44128V27.7184Z" fill="#63CE45"/>
<path fill-rule="evenodd" clip-rule="evenodd" d="M6.75311 8.47187H4.32129V6.97554C4.32129 5.70882 4.82633 4.49397 5.72538 3.59828L6.75311 2.57434V8.47187Z" fill="#4CB832"/>
<path opacity="0.296763" fill-rule="evenodd" clip-rule="evenodd" d="M21.0133 27.7184V8.44128C21.0133 8.44128 21.8514 8.44128 23.5277 8.44128V27.7184H21.0133Z" fill="#63CE45"/>
<path fill-rule="evenodd" clip-rule="evenodd" d="M20.9417 8.47187H23.3735V6.97554C23.3735 5.70882 22.8685 4.49397 21.9694 3.59828L20.9417 2.57434V8.47187Z" fill="#4CB832"/>
<path fill-rule="evenodd" clip-rule="evenodd" d="M15.3766 17.4258C16.0096 18.0619 16.527 19.1034 16.2308 19.7221C15.4385 21.3769 9.52752 24.2787 9.02531 23.7766C8.52317 23.2744 11.4273 17.3612 13.0821 16.5688C13.7008 16.2726 14.7424 16.7903 15.3786 17.4234C15.3786 17.4234 15.3779 17.4243 15.3766 17.4258Z" fill="white"/>
<path fill-rule="evenodd" clip-rule="evenodd" d="M16.2853 13.2092C16.8189 13.3536 17.3578 13.7213 17.4217 14.2703C17.5388 15.2772 15.7585 16.8646 15.3359 16.7513C14.9133 16.6381 14.1685 14.3957 14.7705 13.5579C15.0808 13.1262 15.7512 13.0654 16.2855 13.2073C16.2855 13.2073 16.2855 13.2079 16.2853 13.2092ZM18.5082 16.7273L18.5082 16.7272C18.4053 16.3466 18.143 15.9622 17.7514 15.9166C17.0331 15.833 15.901 17.1028 15.9817 17.4042C16.0625 17.7056 17.6619 18.2368 18.2595 17.8074C18.5674 17.5862 18.6107 17.108 18.5095 16.7269L18.5082 16.7273Z" fill="white"/>
</g>
</svg>
